<svg width="18" height="19" viewBox="0 0 18 19" fill="none" xmlns="http://www.w3.org/2000/svg">
<path fill-rule="evenodd" clip-rule="evenodd" d="M9.06294 0.86705C4.16048 0.86705 0.189697 4.83783 0.189697 9.7403C0.189697 13.6667 2.72966 16.9831 6.25678 18.1588C6.70044 18.2364 6.86682 17.9702 6.86682 17.7373C6.86682 17.5266 6.85572 16.8278 6.85572 16.0847C4.62632 16.4951 4.04956 15.5412 3.87209 15.0421C3.77227 14.787 3.3397 13.9995 2.96259 13.7887C2.65202 13.6223 2.20836 13.212 2.9515 13.2009C3.65026 13.1898 4.14938 13.8442 4.31576 14.1104C5.11435 15.4524 6.38988 15.0753 6.90009 14.8424C6.97773 14.2657 7.21065 13.8774 7.46576 13.6556C5.49146 13.4338 3.42843 12.6685 3.42843 9.27445C3.42843 8.30949 3.77227 7.51089 4.33794 6.88977C4.24921 6.66794 3.93864 5.75843 4.42667 4.53836C4.42667 4.53836 5.16981 4.30543 6.86682 5.44786C7.57668 5.24822 8.3309 5.14839 9.08513 5.14839C9.83935 5.14839 10.5936 5.24822 11.3034 5.44786C13.0004 4.29434 13.7436 4.53836 13.7436 4.53836C14.2316 5.75843 13.921 6.66794 13.8323 6.88977C14.398 7.51089 14.7418 8.29839 14.7418 9.27445C14.7418 12.6796 12.6677 13.4338 10.6934 13.6556C11.0151 13.9329 11.2923 14.4653 11.2923 15.2972C11.2923 16.484 11.2813 17.4378 11.2813 17.7373C11.2813 17.9702 11.4476 18.2475 11.8913 18.1588C13.6528 17.5641 15.1834 16.432 16.2678 14.9218C17.3521 13.4116 17.9357 11.5995 17.9362 9.7403C17.9362 4.83783 13.9654 0.86705 9.06294 0.86705Z" fill="black"/>
</svg>
