<svg width="19" height="19" viewBox="0 0 19 19" fill="none" xmlns="http://www.w3.org/2000/svg">
<g clip-path="url(#clip0_154_4507)">
<path d="M18.3629 8.00235H17.6482V7.96553H9.6624V11.5148H14.677C13.9454 13.5809 11.9796 15.064 9.6624 15.064C6.7223 15.064 4.33854 12.6802 4.33854 9.74014C4.33854 6.80004 6.7223 4.41629 9.6624 4.41629C11.0195 4.41629 12.2542 4.92827 13.1943 5.76455L15.7041 3.2548C14.1194 1.77787 11.9996 0.86705 9.6624 0.86705C4.76223 0.86705 0.789307 4.83998 0.789307 9.74014C0.789307 14.6403 4.76223 18.6132 9.6624 18.6132C14.5626 18.6132 18.5355 14.6403 18.5355 9.74014C18.5355 9.1452 18.4743 8.56446 18.3629 8.00235Z" fill="#FFC107"/>
<path d="M1.81177 5.61016L4.72702 7.74813C5.51584 5.79517 7.42622 4.41629 9.66179 4.41629C11.0189 4.41629 12.2536 4.92826 13.1937 5.76455L15.7035 3.2548C14.1187 1.77787 11.999 0.86705 9.66179 0.86705C6.25364 0.86705 3.29801 2.79118 1.81177 5.61016Z" fill="#FF3D00"/>
<path d="M9.66258 18.6135C11.9545 18.6135 14.037 17.7364 15.6115 16.3101L12.8653 13.9862C11.9445 14.6865 10.8194 15.0652 9.66258 15.0643C7.35468 15.0643 5.39506 13.5927 4.65682 11.539L1.76331 13.7684C3.2318 16.6419 6.21405 18.6135 9.66258 18.6135Z" fill="#4CAF50"/>
<path d="M18.3629 8.00235H17.6481V7.96552H9.66235V11.5148H14.677C14.327 12.4981 13.6967 13.3573 12.8638 13.9864L12.8651 13.9855L15.6113 16.3093C15.417 16.4859 18.5354 14.1767 18.5354 9.74014C18.5354 9.1452 18.4742 8.56446 18.3629 8.00235Z" fill="#1976D2"/>
</g>
<defs>
<clipPath id="clip0_154_4507">
<rect x="0.789307" y="0.86705" width="17.7465" height="17.7465" rx="8.87325" fill="white"/>
</clipPath>
</defs>
</svg>
