<svg width="18" height="15" viewBox="0 0 18 15" fill="none" xmlns="http://www.w3.org/2000/svg">
<path fill-rule="evenodd" clip-rule="evenodd" d="M11.6071 10.0195C10.2731 10.917 8.58167 11.3503 6.8801 11.2304C5.17854 11.1106 3.59607 10.4467 2.45769 9.37515C1.31931 8.30359 0.711442 6.90568 0.758935 5.46855C0.806428 4.03141 1.50567 2.66413 2.71306 1.64753C3.92045 0.630923 5.54432 0.0421669 7.25116 0.00217846C8.958 -0.03781 10.6182 0.474005 11.8909 1.43251C13.1636 2.39101 13.952 3.72343 14.0944 5.15612C14.2367 6.58881 13.7221 8.01301 12.6562 9.13621L17.7592 13.432C17.8322 13.4893 17.8907 13.5583 17.9312 13.6349C17.9718 13.7116 17.9936 13.7944 17.9954 13.8783C17.9971 13.9622 17.9788 14.0456 17.9415 14.1234C17.9041 14.2012 17.8486 14.2719 17.7781 14.3312C17.7076 14.3906 17.6236 14.4374 17.5312 14.4688C17.4388 14.5002 17.3398 14.5157 17.2401 14.5142C17.1404 14.5127 17.0422 14.4944 16.9511 14.4602C16.8601 14.426 16.7781 14.3768 16.7101 14.3154L11.6071 10.0195ZM3.76259 8.71788C3.03617 8.10618 2.54142 7.3269 2.34086 6.47852C2.14031 5.63014 2.24294 4.75074 2.6358 3.95146C3.02866 3.15218 3.69411 2.4689 4.54805 1.98796C5.40198 1.50703 6.40608 1.25003 7.43344 1.24945C8.4608 1.24887 9.46531 1.50473 10.32 1.98469C11.1747 2.46466 11.8413 3.14719 12.2354 3.94602C12.6295 4.74486 12.7336 5.62414 12.5344 6.47275C12.3352 7.32135 11.8417 8.1012 11.1162 8.71371L11.1113 8.71788L11.1063 8.72121C10.1315 9.54007 8.8106 9.99966 7.43364 9.99903C6.05668 9.99841 4.73632 9.53762 3.76259 8.71788Z" fill="#686868"/>
</svg>
