<svg width="13" height="15" viewBox="0 0 13 15" fill="none" xmlns="http://www.w3.org/2000/svg">
<path d="M7.59644 1.80548L7.59536 1.80669L6.20501 3.37015L6.1695 3.40541C6.13958 3.42822 6.11266 3.43239 6.09294 3.43028C6.0703 3.42786 6.03466 3.41442 6.00045 3.37079C5.96511 3.32573 5.93993 3.25738 5.94205 3.17909C5.94417 3.10091 5.97283 3.03621 6.00861 2.99576C6.00866 2.99571 6.0087 2.99566 6.00875 2.9956L7.40471 1.42435L7.51548 1.30598C8.05198 0.762279 8.74101 0.481383 9.43841 0.500961C10.1379 0.520596 10.8171 0.84174 11.3311 1.41963L7.59644 1.80548ZM7.59644 1.80548C8.04659 1.30258 8.66548 1.00302 9.32729 0.9919C9.98927 0.980778 10.617 1.25959 11.0814 1.74833C11.5441 2.23525 11.8118 2.89389 11.8433 3.58221C11.8747 4.27052 11.6685 4.9535 11.2556 5.4873L11.25 5.49454M7.59644 1.80548L11.25 5.49454M11.25 5.49454L11.2442 5.50157M11.25 5.49454L11.2442 5.50157M11.2442 5.50157L11.155 5.60851L11.1499 5.61463M11.2442 5.50157L11.1499 5.61463M11.1499 5.61463L11.1446 5.6206M11.1499 5.61463L11.1446 5.6206M11.1446 5.6206L9.2764 7.72142L9.27635 7.72148M11.1446 5.6206L9.27635 7.72148M9.27635 7.72148C8.81682 8.23806 8.1802 8.54143 7.5021 8.54143C6.824 8.54143 6.18739 8.23806 5.72786 7.72148L5.72769 7.72129M9.27635 7.72148L5.72769 7.72129M5.72769 7.72129C5.70967 7.70101 5.69148 7.68848 5.67592 7.68123C5.66059 7.67408 5.64663 7.67143 5.63426 7.67142C5.62189 7.67142 5.60794 7.67406 5.59262 7.68119L5.38168 7.22786L5.72769 7.72129ZM11.3311 6.00617L11.3311 6.00618L9.46822 8.1017L9.35674 8.22017C8.82017 8.76418 8.13094 9.04525 7.43334 9.02566C6.73392 9.00603 6.05472 8.68491 5.54076 8.10707L11.3311 6.00617ZM11.3311 6.00617C11.8638 5.40692 12.1715 4.58295 12.1715 3.71327M11.3311 6.00617L12.1715 3.71327M5.49321 7.80267C5.5057 7.76881 5.52273 7.74155 5.54085 7.72118C5.54086 7.72118 5.54086 7.72118 5.54086 7.72118L5.49321 7.80267ZM5.49321 7.80267C5.48071 7.83656 5.47373 7.87456 5.47372 7.91407M5.49321 7.80267L5.47372 7.91407M5.47372 7.91407C5.4737 7.95358 5.48067 7.9916 5.49314 8.0255M5.47372 7.91407L5.49314 8.0255M5.49314 8.0255C5.50558 8.05931 5.52255 8.08654 5.54063 8.10692L5.49314 8.0255ZM12.1715 3.71327C12.1715 2.84353 11.8638 2.01887 11.3311 1.4197L12.1715 3.71327ZM7.12859 6.14575L7.12848 6.14563C6.6145 5.56769 5.93525 5.24652 5.23577 5.22689C4.53837 5.20731 3.84934 5.48821 3.31283 6.03191L3.20202 6.15033L1.33895 8.24611C0.815516 8.83577 0.509363 9.64299 0.500207 10.498C0.491051 11.353 0.779849 12.169 1.29126 12.7735C1.80122 13.3764 2.48746 13.7178 3.19807 13.7482C3.90618 13.7783 4.60849 13.4984 5.154 12.9469L5.26402 12.8286L6.66102 11.2577C6.66108 11.2576 6.66113 11.2576 6.66119 11.2575C6.69696 11.217 6.7256 11.1524 6.72772 11.0742C6.72985 10.9959 6.70466 10.9276 6.66933 10.8825C6.63512 10.8389 6.59947 10.8254 6.57684 10.823C6.55711 10.8209 6.5302 10.8251 6.50028 10.8479L6.46475 10.8832L5.07471 12.4463C5.07453 12.4465 5.07435 12.4467 5.07417 12.4469C4.62505 12.9545 4.00487 13.2584 3.34042 13.2717C2.67549 13.285 2.04447 13.0057 1.57819 12.5145C1.11367 12.0252 0.845995 11.3629 0.816738 10.6714C0.787481 9.97993 0.998015 9.29483 1.41629 8.76176L1.42139 8.75525L1.42671 8.74892L1.51586 8.64273L1.52044 8.63728L1.52517 8.63196L3.39269 6.53191C3.3927 6.5319 3.39271 6.53189 3.39272 6.53187C3.61999 6.27627 3.89302 6.06994 4.19798 5.92788C4.50318 5.7857 4.83277 5.71149 5.16734 5.71149C5.50191 5.71149 5.8315 5.7857 6.1367 5.92788C6.44161 6.06992 6.7146 6.2762 6.94185 6.53174C6.97771 6.57204 7.01288 6.58151 7.03525 6.5815C7.05763 6.58149 7.09282 6.57199 7.12868 6.53163C7.16624 6.48937 7.19575 6.42073 7.19573 6.33864C7.1957 6.25655 7.16615 6.18796 7.12859 6.14575Z" fill="#6F5AF8" stroke="#6F5AF8"/>
</svg>
