<svg width="24" height="24" viewBox="0 0 24 24" fill="none" xmlns="http://www.w3.org/2000/svg">
<path fill-rule="evenodd" clip-rule="evenodd" d="M9.40947 1.74834C9.77835 0.912601 10.7305 0.154376 11.9318 0.379663C13.7687 0.722439 15.719 2.07659 15.8561 4.27253L15.8636 4.51962V7.54767H18.8607C19.5703 7.54764 20.2717 7.69484 20.9181 7.97944C21.5644 8.26404 22.1408 8.67947 22.6087 9.19796C23.0766 9.71646 23.4252 10.3261 23.6312 10.986C23.8372 11.646 23.8958 12.3411 23.8032 13.0248L23.7658 13.2598L22.6318 19.3159C22.4307 20.3915 21.8613 21.3694 21.016 22.0907C20.1707 22.812 19.0993 23.2342 17.9759 23.2887L17.7279 23.2936H4.64769C3.69408 23.2936 2.77649 22.9395 2.08266 22.3036C1.38884 21.6678 0.971234 20.7983 0.915289 19.8731L0.909058 19.6599V12.3926C0.909005 11.4657 1.27336 10.5739 1.92757 9.89955C2.58178 9.22521 3.47639 8.81933 4.42836 8.76495L4.64769 8.7589H6.31762L9.40947 1.74834ZM5.89391 11.1813H4.64769C4.31718 11.1813 4.0002 11.3089 3.76649 11.5361C3.53278 11.7632 3.40148 12.0713 3.40148 12.3926V19.6599C3.40148 19.9811 3.53278 20.2892 3.76649 20.5164C4.0002 20.7435 4.31718 20.8711 4.64769 20.8711H5.89391V11.1813ZM11.6576 2.79968L8.48727 9.99071C8.44297 10.0909 8.41279 10.1964 8.39755 10.3044L8.38633 10.4667V20.8711H17.7279C18.2774 20.8712 18.8116 20.6947 19.2472 20.3692C19.6829 20.0437 19.9956 19.5874 20.1369 19.0712L20.1805 18.8823L21.3145 12.8262C21.3772 12.4919 21.3668 12.1485 21.284 11.8184C21.2012 11.4882 21.0479 11.1787 20.834 10.9099C20.6201 10.6411 20.3504 10.4191 20.0424 10.2582C19.7344 10.0973 19.3951 10.0013 19.0464 9.97617L18.8607 9.97012H15.8636C15.2348 9.97031 14.6291 9.73949 14.1681 9.32393C13.707 8.90838 13.4246 8.33879 13.3774 7.72936L13.3712 7.54767V4.51962C13.3712 3.84981 12.8303 3.1679 11.8695 2.86025L11.6576 2.79968Z" fill="black"/>
</svg>
